<svg width="1024" height="1024" viewBox="0 0 1024 1024" fill="none" xmlns="http://www.w3.org/2000/svg">
<rect width="1024" height="1024" rx="128" fill="#1E40AF"/>
<circle cx="512" cy="512" r="280" fill="#FFFFFF" fill-opacity="0.1"/>
<circle cx="512" cy="512" r="200" fill="#6366F1"/>
<path d="M432 432L592 432L592 592L512 512L432 592V432Z" fill="#FFFFFF"/>
<path d="M12 2C13.1 2 14 2.9 14 4V10C17 10.3 19.3 12 20 15C20.9 18 20 20.3 18 21H6C3 20.3 2 18 2 15C2.7 12 5 10.3 8 10V4C8 2.9 8.9 2 10 2H12Z" fill="#FFFFFF" transform="translate(400,400) scale(8)"/>
</svg>